<svg width="32" height="32" viewBox="0 0 32 32" fill="none" xmlns="http://www.w3.org/2000/svg">
<path d="M16 0C7.16374 0 0 7.16342 0 16C0 24.8366 7.16374 32 16 32C24.8363 32 32 24.8366 32 16C32 7.16342 24.8363 0 16 0ZM9.25692 21.7243C6.345 21.7243 3.9847 19.1617 3.9847 16C3.9847 12.8383 6.34533 10.2754 9.25692 10.2754C12.1685 10.2754 14.5295 12.8383 14.5295 16C14.5295 19.1617 12.1688 21.7243 9.25692 21.7243ZM22.5909 21.5881C19.5948 21.5881 17.1664 19.056 17.1664 15.9316C17.1664 12.8079 19.5948 10.2754 22.5909 10.2754C25.5863 10.2754 28.0153 12.8079 28.0153 15.9316C28.0153 19.056 25.5863 21.5881 22.5909 21.5881Z" fill="white"/>
</svg>