<svg width="32" height="32" viewBox="0 0 32 32" fill="none" xmlns="http://www.w3.org/2000/svg">
<path d="M0.000976562 16.0005C0.000976562 22.3327 3.68059 27.8063 9.01855 30.4013L1.38584 9.48948C0.500639 11.4778 0.000976562 13.6801 0.000976562 16.0005ZM26.8018 15.1914C26.8018 13.2143 26.0924 11.8449 25.4827 10.7798C24.6736 9.45966 23.9118 8.34724 23.9118 7.02818C23.9118 5.559 25.0283 4.18853 26.5982 4.18853C26.6682 4.18853 26.736 4.19675 26.807 4.19984C23.9591 1.59255 20.1664 0 16.0025 0C10.4116 0 5.49521 2.86843 2.63397 7.21324C3.00923 7.22455 5.87561 7.11659 5.87561 7.11659L12.0248 25.8282L15.5265 15.3281L12.6725 7.02818H17.9631L23.9868 25.6966L25.5856 20.3628C26.3947 18.284 26.8018 16.5619 26.8018 15.1914ZM16.2811 17.4008L11.4799 31.3482C12.9151 31.7687 14.4295 32 16.0015 32C17.8634 32 19.6513 31.6772 21.3137 31.0942C21.2716 31.0253 21.2294 30.9513 21.1976 30.8732L16.2811 17.4008ZM30.0393 8.3236C30.1092 8.83354 30.1473 9.37947 30.1473 9.97063C30.1473 11.593 29.8419 13.4179 28.9279 15.6993L24.0424 29.8286C28.7994 27.0548 31.9969 21.9029 31.9969 16.0005C31.9999 13.2174 31.2885 10.6019 30.0393 8.3236Z" fill="white"/>
</svg>