<?xml version="1.0" encoding="UTF-8" standalone="no"?>
<!-- Generator: Adobe Illustrator 26.0.3, SVG Export Plug-In . SVG Version: 6.00 Build 0)  -->

<svg
   version="1.1"
   id="Layer_1"
   x="0px"
   y="0px"
   viewBox="0 0 218.8 32.6"
   style="enable-background:new 0 0 218.8 32.6;"
   xml:space="preserve"
   sodipodi:docname="flourish.svg"
   inkscape:version="1.1.2 (0a00cf5339, 2022-02-04)"
   xmlns:inkscape="http://www.inkscape.org/namespaces/inkscape"
   xmlns:sodipodi="http://sodipodi.sourceforge.net/DTD/sodipodi-0.dtd"
   xmlns="http://www.w3.org/2000/svg"
   xmlns:svg="http://www.w3.org/2000/svg"><defs
   id="defs17" /><sodipodi:namedview
   id="namedview15"
   pagecolor="#ffffff"
   bordercolor="#111111"
   borderopacity="1"
   inkscape:pageshadow="0"
   inkscape:pageopacity="0"
   inkscape:pagecheckerboard="1"
   showgrid="false"
   inkscape:zoom="6.8967092"
   inkscape:cx="109.4"
   inkscape:cy="16.312127"
   inkscape:current-layer="Layer_1" />
<style
   type="text/css"
   id="style2">
	.st0{fill:#533025;}
	.st1{fill-rule:evenodd;clip-rule:evenodd;fill:#533025;}
</style>
<g
   id="g12"
   style="fill:#000000;fill-opacity:1">
	<path
   class="st0"
   d="M88.2,13.7c-0.2-0.1-0.4-0.3-0.6-0.5c-0.2-0.2-0.3-0.4-0.4-0.7c-0.1-0.3-0.1-0.5,0-0.7c0-0.2,0.3-0.4,0.6-0.6   c0.3,0.4,0.6,0.8,1,1.1c0.3,0.3,0.8,0.5,1.2,0.6c0.4,0.2,0.9,0.3,1.3,0.3c0.5,0,0.9,0.1,1.4,0.1c0.3,0,0.6,0,1-0.1   c0.3,0,0.7-0.1,1-0.1c0.3,0,0.6,0,0.9,0c0.3,0,0.6,0.1,0.8,0.3c0.2,0.1,0.3,0.2,0.4,0.4c0.1,0.2,0.2,0.3,0.2,0.5   c0,0.2,0.1,0.3,0.1,0.5c0,0.2,0.1,0.3,0.1,0.5c-0.3-0.5-0.7-0.8-1-1c-0.4-0.2-0.8-0.3-1.2-0.3c-0.4,0-0.9,0-1.3,0   c-0.5,0-0.9,0.1-1.3,0.1c-0.3,0-0.7,0-1,0c-0.4,0-0.7-0.1-1.1-0.1c-0.4-0.1-0.7-0.2-1-0.4c-0.4-0.2-0.7-0.4-1-0.7   c0.3,0.4,0.6,0.7,1.1,0.9c0.5,0.2,1,0.3,1.5,0.4c0.5,0.1,1,0.1,1.6,0c0.5,0,1.1,0,1.6,0c0.5,0,0.9,0,1.2,0c0.4,0,0.6,0.1,0.7,0.3   c-0.3,0-0.7,0-1,0c-0.4,0-0.8,0.1-1.1,0.1c-0.4,0.1-0.8,0.1-1.2,0.2c-0.3,0.1-0.7,0.1-1,0.1c-0.3,0-0.5,0-0.9,0   c-0.3,0-0.6-0.1-0.9-0.2c-0.3-0.1-0.6-0.2-0.9-0.3C88.6,14,88.4,13.8,88.2,13.7L88.2,13.7z M91.6,22.5c0.2-0.2,0.4-0.5,0.5-0.8   c0.1-0.4,0.3-0.8,0.4-1.1c0.1-0.4,0.2-0.8,0.3-1C93,19.2,93,19,93,19c-0.2,0.3-0.4,0.6-0.7,0.7c-0.3,0.2-0.6,0.1-0.9-0.1   c0.3-0.2,0.5-0.5,0.6-1c0.1-0.4,0.2-0.9,0.4-1.4c0.1-0.5,0.3-1,0.6-1.4c0.3-0.5,0.7-0.8,1.2-1.1c-0.5,0.4-0.8,0.9-1.1,1.4   c-0.2,0.5-0.3,1.1-0.3,1.7c0-0.3,0.1-0.7,0.3-1.1c0.2-0.4,0.3-0.8,0.5-1.1c0.2-0.3,0.4-0.6,0.7-0.8c0.3-0.3,0.5-0.4,0.7-0.4   c-0.4,0.4-0.8,0.8-0.9,1.3c-0.2,0.5-0.3,1.1-0.4,1.7c-0.1,0.6-0.2,1.2-0.2,1.8c0,0.6-0.2,1.2-0.4,1.7c0.2-0.2,0.3-0.5,0.4-0.9   c0.1-0.4,0.1-0.8,0.2-1.3c0-0.5,0.1-0.9,0.2-1.4c0-0.5,0.1-0.8,0.2-1.1c0-0.2,0.2-0.4,0.3-0.6c0.2-0.3,0.3-0.5,0.5-0.7   c0.2-0.2,0.4-0.3,0.6-0.4c0.2-0.1,0.4-0.1,0.6,0.1c-0.3,0-0.5,0.2-0.8,0.3c-0.2,0.2-0.4,0.4-0.5,0.6c-0.2,0.2-0.3,0.5-0.3,0.8   c0,0.3,0,0.5,0,0.8c0-0.5,0-0.8,0.2-1.2c0.2-0.3,0.4-0.6,0.6-0.8c0.3-0.2,0.5-0.3,0.8-0.3c0.3,0,0.5,0.1,0.7,0.3   c-0.3,0-0.5,0-0.7,0.1c-0.2,0.1-0.3,0.2-0.5,0.3c-0.1,0.2-0.2,0.3-0.3,0.5c0,0.2-0.1,0.4,0,0.5c0,0.7,0.4,1.1,1,1.3   c-0.1,0.3-0.2,0.4-0.4,0.5c-0.2,0.1-0.4,0.2-0.6,0.2c-0.2,0-0.4-0.1-0.6-0.3c-0.2-0.1-0.4-0.3-0.5-0.6c-0.1,0.4-0.1,0.8-0.1,1.1   c0,0.3,0,0.7-0.1,1c0,0.3-0.1,0.7-0.3,1c-0.1,0.3-0.3,0.6-0.5,0.9c-0.2,0.2-0.5,0.4-0.8,0.6C92.3,22.5,92,22.5,91.6,22.5L91.6,22.5   z M102.8,32.3c0-0.2,0-0.4-0.1-0.5c0-0.1-0.1-0.3-0.2-0.4c-0.1-0.1-0.1-0.2-0.2-0.3c0-0.1-0.1-0.3-0.2-0.3c0-0.1,0-0.2,0-0.3   c0-0.1,0-0.3,0-0.4c0-0.2,0-0.3,0-0.4c0-0.1-0.1-0.3-0.2-0.4c-0.1,0.4-0.3,0.7-0.5,0.7c-0.3,0.1-0.6,0-0.9-0.3   c0.4-0.3,0.6-0.7,0.7-1.1c0.1-0.4,0.2-0.9,0.3-1.3c-0.3,0.4-0.7,0.6-1,0.6c-0.4,0-0.7-0.2-1-0.5c0.2-0.1,0.3-0.2,0.5-0.3   c0.2-0.1,0.3-0.3,0.5-0.4c0.1-0.2,0.3-0.3,0.3-0.4c0.1-0.1,0.2-0.2,0.1-0.3c0,0-0.1,0-0.2,0c-0.1,0-0.3,0.1-0.4,0.1   c-0.2,0-0.3,0.1-0.5,0.1c-0.2,0-0.4,0-0.7-0.1c-0.2-0.1-0.3-0.2-0.5-0.3c-0.2-0.1-0.3-0.2-0.5-0.3c-0.2-0.1-0.3-0.1-0.5-0.2   c-0.2,0-0.3,0-0.5,0c0-0.3,0-0.5,0.2-0.6c0.2-0.1,0.5-0.2,0.7-0.2c-0.2-0.1-0.4-0.2-0.6-0.3c-0.1-0.1-0.3-0.2-0.3-0.4   c-0.1-0.3-0.3-0.7-0.6-1c-0.3-0.3-0.6-0.5-1-0.7c0.2-0.1,0.3-0.2,0.5-0.3c0.2,0,0.4,0,0.6,0c0.2,0,0.4,0.1,0.6,0.2   c0.2,0.1,0.4,0.2,0.5,0.3c0.1,0.1,0.2,0.3,0.3,0.4c0,0.2,0.1,0.3,0.2,0.4c0,0.2,0.1,0.3,0.2,0.4c0.1,0.1,0.2,0.2,0.3,0.3   c-0.1-0.3-0.1-0.6,0.1-0.8c0.1-0.2,0.4-0.2,0.7-0.2c0,0.3,0.1,0.5,0.2,0.7c0.1,0.2,0.3,0.3,0.5,0.4c0.2,0.1,0.4,0.1,0.6,0.1   c0.2,0,0.4,0,0.6,0c0.2,0,0.4-0.1,0.6-0.2c0.2-0.1,0.5-0.3,0.7-0.4c0.2-0.1,0.5-0.2,0.7-0.3c0.3,0,0.5,0,0.7,0.1   c-0.8,0.9-1.7,1.4-2.5,1.6c-0.8,0.2-1.8,0-2.8-0.4c0.5,0.3,1,0.5,1.4,0.6c0.5,0.1,0.9,0.1,1.4,0c0.4-0.1,0.9-0.3,1.3-0.5   c0.5-0.3,0.9-0.5,1.4-0.8c-0.1,0.1-0.3,0.3-0.5,0.4c-0.2,0.2-0.4,0.3-0.6,0.5c-0.2,0.1-0.4,0.3-0.5,0.5c-0.1,0.2-0.3,0.3-0.3,0.3   c0.2-0.1,0.3-0.2,0.5-0.3c0.2-0.1,0.4-0.3,0.6-0.4c0.2-0.2,0.4-0.3,0.6-0.5c0.2-0.1,0.3-0.2,0.5-0.3c-0.5,0.3-0.9,0.8-1.2,1.2   c-0.3,0.5-0.6,0.9-0.8,1.4c-0.2,0.5-0.3,0.9-0.3,1.4c0,0.5,0,0.9,0.1,1.3c0-0.3,0-0.7,0-1.1c0-0.4,0.1-0.8,0.3-1.3   c0.1-0.4,0.3-0.8,0.5-1.2c0.3-0.4,0.5-0.7,0.8-0.9c-0.2,0.4-0.4,0.7-0.5,1.1c-0.1,0.3-0.2,0.7-0.2,0.9c0.1-0.5,0.3-0.9,0.6-1.4   c0.3-0.5,0.6-0.8,1.1-1c-0.1,0.1-0.2,0.3-0.2,0.5c-0.1,0.2-0.1,0.3,0,0.5c0-0.2,0.2-0.4,0.4-0.6c0.2-0.2,0.5-0.3,0.7-0.3   c-0.3,0.3-0.4,0.6-0.4,0.9c0,0.3,0.1,0.6,0.3,0.9c-0.1,0.1-0.3,0.2-0.4,0.2c-0.1,0-0.3,0-0.3-0.1c-0.1,0-0.2-0.1-0.3-0.3   c-0.1-0.1-0.2-0.2-0.3-0.3c-0.2,0.2-0.3,0.5-0.3,0.7c0,0.3,0,0.5,0,0.7c0.1,0.2,0.2,0.4,0.3,0.6c0.2,0.1,0.3,0.3,0.5,0.3   c-0.2,0.2-0.4,0.3-0.7,0.4c-0.3,0-0.5-0.1-0.7-0.5c-0.2,0.3-0.3,0.6-0.1,0.9c0.1,0.3,0.3,0.6,0.6,0.8c-0.2,0.1-0.4,0.2-0.6,0   c-0.3-0.1-0.5-0.3-0.7-0.5c-0.1,0-0.1,0.1-0.1,0.2s0.1,0.2,0.2,0.3c0.1,0.1,0.2,0.3,0.3,0.4c0.1,0.1,0.1,0.3,0.1,0.5   c0,0.3,0,0.6-0.1,0.9C103.3,31.9,103.1,32.1,102.8,32.3L102.8,32.3z M95.7,16.2c0-0.2,0.1-0.3,0.3-0.5c0.1-0.1,0.3-0.2,0.5-0.3   c0.2-0.1,0.4-0.1,0.6-0.1c0.3,0,0.5,0.1,0.6,0.3c0-0.1,0-0.3,0-0.4c0-0.1-0.1-0.3-0.2-0.4c-0.1-0.1-0.1-0.3-0.2-0.4   c-0.1-0.1-0.1-0.3-0.1-0.5c0-0.2,0-0.3,0-0.5c0-0.2,0.1-0.3,0.1-0.5c0-0.1,0.1-0.3,0.1-0.5c0-0.1,0-0.3-0.1-0.5   c0.4,0,0.6,0.1,0.8,0.3c0.2,0.2,0.3,0.4,0.3,0.6c0,0.2,0.1,0.4,0.1,0.6c0,0.2,0,0.3,0,0.4c0.1-0.1,0.2-0.2,0.2-0.4   c0-0.1,0-0.3,0-0.4c0-0.2-0.1-0.3-0.1-0.5c0-0.1,0-0.3,0-0.4c0-0.1,0.1-0.2,0.2-0.3c0.1-0.1,0.2-0.3,0.3-0.4   c0.1-0.2,0.1-0.3,0.1-0.5c0-0.1,0-0.3-0.1-0.4c0.3,0,0.6,0,0.8,0.3c0.1,0.3,0.2,0.5,0.1,0.8c0.3,0,0.5-0.1,0.6-0.3   c0.1-0.2,0.2-0.4,0.2-0.7c0-0.3-0.1-0.5-0.2-0.8c-0.2-0.3-0.4-0.5-0.6-0.7c0.2-0.1,0.4-0.1,0.8,0c0.3,0.1,0.6,0.2,0.9,0.4   c0.3,0.2,0.5,0.5,0.8,0.8c0.2,0.3,0.3,0.7,0.2,1.1c0,0.2-0.1,0.4-0.2,0.6c-0.1,0.2-0.3,0.3-0.4,0.5c-0.1,0.2-0.3,0.3-0.4,0.4   c-0.2,0.1-0.3,0.3-0.3,0.5c0.2-0.1,0.4-0.1,0.7-0.1c0.3,0,0.5,0,0.7,0.2c0.2,0.1,0.4,0.3,0.5,0.5c0.1,0.2,0.1,0.5,0,0.8   c-1-0.4-1.7-0.2-2.1,0.5c-0.2,0.3-0.3,0.6-0.3,1c0,0.4,0.1,0.7,0.2,1c0.6,1.4,1.3,2.6,2.3,3.4c1,0.9,1.9,1.6,2.9,1.9   c1,0.4,2,0.6,2.9,0.5c1-0.1,1.7-0.4,2.3-0.9c0.3,0,0.5,0,0.8,0c0.3,0,0.5,0.1,0.8,0.2c-0.8,0.7-1.5,1.1-2.3,1.4   c-0.8,0.3-1.6,0.3-2.4,0.3c-0.8,0-1.6-0.3-2.4-0.6c-0.8-0.3-1.5-0.8-2.1-1.4c-0.7-0.5-1.3-1.2-1.8-2c-0.5-0.8-1-1.6-1.3-2.5   c-0.3-1-0.4-1.7-0.2-2.3c0.2-0.5,0.7-1.1,1.6-1.5c-0.7,0.2-1.2,0.5-1.5,0.9c-0.3,0.4-0.4,0.8-0.5,1.3c0,0.5,0,1,0.2,1.4   c0.2,0.5,0.3,0.9,0.5,1.3c-0.5-0.6-0.8-1.3-1.1-1.9c-0.2-0.7-0.3-1.3-0.1-1.8c0.1-0.4,0.3-0.8,0.6-1.2c0.3-0.5,0.6-0.9,0.8-1.3   c0.3-0.5,0.4-0.9,0.5-1.3c0.1-0.4,0-0.7-0.2-0.9c0.1,0.3,0.1,0.7-0.1,1c-0.2,0.4-0.4,0.8-0.6,1.2c-0.3,0.4-0.5,0.8-0.8,1.2   c-0.3,0.4-0.4,0.8-0.5,1.2c-0.1,0.3-0.1,0.6-0.1,1.1c0,0.4,0.1,0.8,0.3,1.2c0.1,0.4,0.3,0.8,0.6,1.2c0.3,0.4,0.6,0.7,1,1   c-0.8-0.5-1.3-1-1.6-1.6c-0.3-0.6-0.5-1.3-0.6-1.9c0-0.6,0-1.3,0.1-1.8c0.2-0.5,0.3-1.1,0.5-1.5c0,0.1-0.2,0.3-0.3,0.6   c-0.1,0.3-0.3,0.6-0.4,1c-0.1,0.4-0.2,0.8-0.3,1.3c0,0.5,0,1,0.3,1.5c0.2,0.5,0.5,1.1,0.9,1.6c0.5,0.6,1.1,1.1,1.9,1.7   c-0.5-0.1-0.9-0.3-1.3-0.5c-0.4-0.3-0.8-0.6-1.1-1c-0.3-0.3-0.7-0.7-1-1.1c-0.3-0.4-0.6-0.7-0.9-1c-0.3-0.3-0.5-0.5-0.8-0.7   C96.2,16.1,95.9,16.1,95.7,16.2L95.7,16.2z M106.5,22.6c-0.4-0.7-0.5-1.4-0.4-2.3c0.2-0.8,0.4-1.7,0.8-2.6c0.4-0.8,0.8-1.7,1.3-2.5   c0.5-0.8,1-1.5,1.4-2c-0.1,0.5-0.3,1.1-0.5,1.7c-0.2,0.6-0.5,1.2-0.7,1.7c0.5-0.8,1-1.7,1.2-2.6c0.3-0.9,0.4-1.8,0.5-2.8   c0-0.6-0.1-1.3-0.3-1.9c-0.3-0.7-0.6-1.2-1-1.7c-0.3-0.2-0.5-0.4-0.7-0.6c-0.2-0.2-0.5-0.3-0.7-0.5c-0.3-0.1-0.5-0.2-0.8-0.2   c-0.3,0-0.5,0.1-0.8,0.2c-0.2-0.2-0.3-0.5-0.2-0.8c0.1-0.3,0.4-0.5,0.9-0.5c-0.2-0.3-0.5-0.5-0.9-0.6c-0.4-0.2-0.8-0.4-1.1-0.6   c-0.4-0.2-0.6-0.5-0.8-0.9c-0.2-0.3-0.2-0.8-0.1-1.5c0-0.2,0.1-0.3,0.2-0.5c0.1-0.1,0.3-0.2,0.4-0.3c0.2-0.1,0.3-0.1,0.5-0.2   c0.2,0,0.3,0,0.5,0.1c-0.1,0.4-0.1,0.8,0,1.2c0.1,0.4,0.4,0.8,0.8,1.1c0.4,0.4,0.9,0.8,1.3,1.2c0.5,0.5,1,0.9,1.4,1.4   c0.5,0.5,0.8,1,1.2,1.5c0.3,0.5,0.5,0.9,0.6,1.3c-0.3-0.5-0.7-1-1.1-1.4c-0.4-0.5-0.9-0.8-1.3-1.2c-0.4-0.4-0.9-0.8-1.3-1.1   c-0.5-0.3-0.9-0.7-1.3-1c-0.4-0.3-0.6-0.7-0.8-1.1c-0.2-0.4-0.3-0.8-0.3-1.2c-0.1,0.4-0.2,0.8,0,1.1c0.1,0.4,0.3,0.8,0.6,1   c0.3,0.3,0.5,0.5,0.9,0.8c0.4,0.3,0.7,0.5,1.1,0.8c0.3,0.3,0.7,0.5,1,0.7c0.3,0.3,0.6,0.5,0.8,0.8c0.6,0.7,1.1,1.4,1.4,2.2   c0.3,0.8,0.5,1.6,0.5,2.4c0,1.1-0.2,2.1-0.6,3c-0.5,0.9-1,1.8-1.6,2.6c0.2-0.2,0.4-0.3,0.6-0.3c0.3,0,0.4,0,0.6,0.2   c0.2,0.1,0.3,0.3,0.3,0.5c0,0.2,0,0.4-0.1,0.7c-0.3-0.1-0.5-0.1-0.8-0.1c-0.3,0-0.5,0.1-0.7,0.3c-0.2,0.2-0.4,0.3-0.5,0.5   c-0.1,0.2-0.2,0.4-0.2,0.6c0.3-0.1,0.6,0,0.9,0c0.3,0.1,0.5,0.3,0.7,0.5c0.2,0.2,0.3,0.5,0.2,0.8c0,0.3-0.2,0.7-0.5,1.1   c0-0.3-0.2-0.5-0.4-0.6c-0.2-0.1-0.4-0.2-0.6-0.3c-0.3,0-0.5,0-0.6,0.1c-0.2,0.1-0.3,0.3-0.4,0.5c-0.1,0.2-0.2,0.4-0.2,0.6   c0,0.2,0,0.4,0,0.6c-0.1-0.2-0.2-0.5-0.3-0.7c0-0.3,0-0.5,0-0.8c0.1-0.3,0.2-0.5,0.4-0.7c0.2-0.2,0.5-0.3,0.8-0.3   c0.4,0,0.6,0,0.9,0.2c0.2,0.2,0.4,0.4,0.6,0.8c0-0.5-0.2-0.8-0.4-0.9c-0.3-0.2-0.5-0.3-0.8-0.3c-0.3,0-0.6,0-0.8,0.2   c-0.3,0.1-0.5,0.3-0.7,0.4c0.1-0.6,0.3-1.3,0.8-1.9c0.3-0.4,0.7-0.7,1.2-0.8c0.5-0.1,0.9-0.2,1.3-0.1c-0.5-0.2-0.9-0.2-1.3-0.1   c-0.4,0.1-0.8,0.3-1.1,0.6c-0.2,0.2-0.4,0.5-0.6,0.8c-0.2,0.4-0.3,0.8-0.4,1.2c-0.1,0.4-0.1,0.8-0.1,1.3   C106.4,21.9,106.4,22.3,106.5,22.6L106.5,22.6z M104.9,21.8c-0.1-0.2-0.2-0.4-0.3-0.6c0-0.3-0.1-0.5-0.2-0.7   c-0.1-0.2-0.2-0.4-0.3-0.6c-0.1-0.2-0.3-0.4-0.5-0.5c0.2-0.5,0.5-0.7,0.8-0.6c0.3,0.1,0.5,0.3,0.8,0.7c0-0.1,0-0.2-0.1-0.3   c0-0.1-0.1-0.2-0.2-0.3c-0.1-0.1-0.1-0.3-0.2-0.4c-0.1-0.2-0.1-0.3-0.1-0.5c0-0.2,0-0.3,0-0.4c0-0.1,0.1-0.2,0.1-0.3   c0-0.1,0-0.3,0-0.4c0-0.1,0-0.3-0.1-0.5c0.3-0.1,0.5-0.2,0.6-0.1c0.2,0.1,0.3,0.2,0.4,0.4c0.1,0.2,0.1,0.4,0.1,0.7   c0,0.3,0,0.5,0,0.6c0.1-0.1,0.3-0.3,0.3-0.5c0.1-0.3,0.1-0.5,0.1-0.8c0-0.3,0-0.6,0-0.9c0-0.3-0.1-0.5-0.2-0.7c0.2,0,0.3,0,0.5,0   c0.1,0,0.3,0.2,0.3,0.3c0.1,0.2,0.2,0.3,0.2,0.5c0,0.2,0,0.4-0.1,0.6c0.3-0.3,0.4-0.7,0.5-1.1c0.1-0.4,0.3-0.9,0.5-1.3   c0.1-0.5,0.4-0.9,0.6-1.4c0.3-0.5,0.7-1,1.3-1.4c0,0.3,0,0.5,0,0.8c0,0.3-0.1,0.5-0.2,0.8c-0.5,0.6-1,1.3-1.4,2   c-0.5,0.7-0.9,1.4-1.3,2.2c-0.3,0.8-0.6,1.5-0.8,2.2c-0.2,0.8-0.3,1.5-0.3,2.2c-0.2-0.3-0.3-0.5-0.3-0.8c0-0.3-0.1-0.6-0.1-0.9   c0-0.3,0-0.6,0-0.9c0-0.3,0-0.5-0.1-0.6c0,0.3,0,0.6,0,1c0,0.4-0.1,0.7-0.1,1.1c0,0.4,0,0.7,0.1,1.1c0.1,0.4,0.3,0.8,0.6,1.2   c-0.2-0.1-0.4-0.3-0.7-0.4C105.1,22,105,21.9,104.9,21.8L104.9,21.8z M111.2,12l0-0.5c0.2,0,0.4-0.1,0.6-0.1c0.3,0,0.5,0,0.8,0.1   c0.3,0,0.6,0.1,0.9,0.2c0.3,0.1,0.6,0.2,0.8,0.3c-0.4-0.3-0.8-0.6-1.4-0.7c-0.5-0.1-1.1-0.2-1.9-0.2l0-0.4c0.3-0.1,0.6-0.2,1.1-0.2   c0.5,0,0.8,0,1.2,0.2c0.3,0.1,0.5,0.3,0.7,0.4c0.3,0.2,0.5,0.3,0.7,0.5c0.3,0.2,0.5,0.3,0.7,0.5c0.3,0.1,0.5,0.3,0.8,0.3   c0.2,0.1,0.4,0.1,0.5,0.1s0.3,0,0.5-0.2c0.1,0.2,0.1,0.4,0,0.6c0,0.2-0.2,0.3-0.3,0.5c-0.2,0.1-0.3,0.2-0.6,0.3   c-0.2,0-0.4,0.1-0.6,0c-0.4,0-0.7-0.2-0.9-0.4c-0.2-0.2-0.4-0.4-0.7-0.6c0,0.3,0,0.5-0.1,0.7c-0.2,0.2-0.4,0.3-0.7,0.3   c0.1-0.4,0.1-0.7,0-1c-0.2-0.3-0.3-0.4-0.6-0.5c-0.3-0.1-0.5-0.2-0.8-0.3C111.7,12,111.4,12,111.2,12L111.2,12z"
   id="path4"
   style="fill:#000000;fill-opacity:1" />
	<path
   class="st0"
   d="M130.7,13.7c0.2-0.1,0.4-0.3,0.6-0.5c0.2-0.2,0.3-0.4,0.4-0.7c0.1-0.3,0.1-0.5,0-0.7c-0.1-0.2-0.3-0.4-0.6-0.6   c-0.3,0.4-0.5,0.8-0.9,1.1c-0.4,0.3-0.8,0.5-1.2,0.6c-0.4,0.2-0.9,0.3-1.3,0.3c-0.5,0-0.9,0.1-1.4,0.1c-0.3,0-0.6,0-1-0.1   c-0.4,0-0.7-0.1-1-0.1c-0.3,0-0.7,0-1,0c-0.3,0-0.5,0.1-0.8,0.3c-0.2,0.1-0.3,0.2-0.4,0.4c-0.1,0.2-0.1,0.3-0.2,0.5   c0,0.2-0.1,0.3-0.1,0.5c0,0.2-0.1,0.3-0.1,0.5c0.3-0.5,0.7-0.8,1.1-1c0.4-0.2,0.8-0.3,1.3-0.3c0.4,0,0.8,0,1.3,0   c0.4,0,0.8,0.1,1.2,0.1c0.3,0,0.7,0,1,0c0.3,0,0.7-0.1,1-0.1c0.3-0.1,0.7-0.2,1.1-0.4c0.3-0.2,0.7-0.4,1-0.7   c-0.3,0.4-0.7,0.7-1.1,0.9c-0.5,0.2-1,0.3-1.5,0.4c-0.5,0.1-1.1,0.1-1.6,0c-0.6,0-1.1,0-1.6,0c-0.5,0-0.9,0-1.3,0   c-0.3,0-0.6,0.1-0.7,0.3c0.3,0,0.7,0,1,0c0.4,0,0.8,0.1,1.2,0.1c0.4,0.1,0.8,0.1,1.1,0.2c0.4,0.1,0.7,0.1,1,0.1c0.3,0,0.5,0,0.9,0   c0.3,0,0.6-0.1,0.9-0.2c0.3-0.1,0.6-0.2,0.9-0.3C130.2,14,130.5,13.8,130.7,13.7L130.7,13.7z M127.2,22.5c-0.2-0.2-0.4-0.5-0.5-0.8   c-0.2-0.4-0.3-0.8-0.4-1.1c-0.2-0.4-0.3-0.8-0.3-1c0-0.3-0.1-0.5-0.2-0.5c0.2,0.3,0.4,0.6,0.8,0.7c0.3,0.2,0.6,0.1,0.9-0.1   c-0.3-0.2-0.5-0.5-0.6-1c-0.1-0.4-0.3-0.9-0.4-1.4c-0.1-0.5-0.3-1-0.6-1.4c-0.3-0.5-0.6-0.8-1.2-1.1c0.5,0.4,0.8,0.9,1.1,1.4   c0.2,0.5,0.3,1.1,0.3,1.7c0-0.3-0.1-0.7-0.3-1.1c-0.1-0.4-0.3-0.8-0.5-1.1c-0.2-0.3-0.4-0.6-0.7-0.8c-0.3-0.3-0.5-0.4-0.8-0.4   c0.5,0.4,0.8,0.8,0.9,1.3c0.2,0.5,0.3,1.1,0.4,1.7c0,0.6,0.1,1.2,0.2,1.8c0.1,0.6,0.2,1.2,0.4,1.7c-0.2-0.2-0.3-0.5-0.4-0.9   c-0.1-0.4-0.1-0.8-0.2-1.3c0-0.5-0.1-0.9-0.1-1.4c-0.1-0.5-0.1-0.8-0.2-1.1c-0.1-0.2-0.2-0.4-0.3-0.6c-0.1-0.3-0.3-0.5-0.5-0.7   c-0.2-0.2-0.4-0.3-0.6-0.4c-0.2-0.1-0.4-0.1-0.6,0.1c0.3,0,0.5,0.2,0.8,0.3c0.2,0.2,0.4,0.4,0.5,0.6c0.1,0.2,0.2,0.5,0.3,0.8   c0,0.3,0,0.5-0.1,0.8c0-0.5,0-0.8-0.2-1.2c-0.2-0.3-0.4-0.6-0.6-0.8c-0.3-0.2-0.5-0.3-0.8-0.3c-0.3,0-0.5,0.1-0.7,0.3   c0.3,0,0.5,0,0.7,0.1c0.2,0.1,0.3,0.2,0.5,0.3c0.1,0.2,0.2,0.3,0.3,0.5c0,0.2,0.1,0.4,0.1,0.5c0,0.7-0.4,1.1-1,1.3   c0,0.3,0.2,0.4,0.4,0.5c0.2,0.1,0.4,0.2,0.6,0.2c0.2,0,0.4-0.1,0.6-0.3c0.2-0.1,0.3-0.3,0.4-0.6c0.1,0.4,0.1,0.8,0.2,1.1   c0,0.3,0,0.7,0.1,1c0,0.3,0.1,0.7,0.3,1c0.1,0.3,0.3,0.6,0.6,0.9c0.2,0.2,0.4,0.4,0.7,0.6C126.6,22.5,126.9,22.5,127.2,22.5   L127.2,22.5z M116,32.3c0-0.2,0-0.4,0.1-0.5c0.1-0.1,0.1-0.3,0.2-0.4c0-0.1,0.1-0.2,0.2-0.3c0.1-0.1,0.1-0.3,0.2-0.3   c0-0.1,0-0.2,0-0.3c0-0.1,0-0.3,0-0.4c0-0.2,0-0.3,0-0.4c0-0.1,0.1-0.3,0.2-0.4c0.1,0.4,0.3,0.7,0.5,0.7c0.3,0.1,0.5,0,0.8-0.3   c-0.3-0.3-0.6-0.7-0.7-1.1c-0.1-0.4-0.2-0.9-0.3-1.3c0.3,0.4,0.7,0.6,1,0.6c0.4,0,0.7-0.2,1-0.5c-0.1-0.1-0.3-0.2-0.5-0.3   c-0.2-0.1-0.3-0.3-0.5-0.4c-0.2-0.2-0.3-0.3-0.4-0.4c-0.1-0.1-0.1-0.2-0.1-0.3c0,0,0.1,0,0.2,0c0.1,0,0.3,0.1,0.4,0.1   c0.1,0,0.3,0.1,0.5,0.1c0.2,0,0.5,0,0.7-0.1c0.2-0.1,0.4-0.2,0.5-0.3c0.1-0.1,0.3-0.2,0.5-0.3c0.2-0.1,0.3-0.1,0.5-0.2   c0.2,0,0.3,0,0.5,0c0-0.3,0-0.5-0.2-0.6c-0.2-0.1-0.4-0.2-0.7-0.2c0.3-0.1,0.4-0.2,0.6-0.3c0.2-0.1,0.3-0.2,0.3-0.4   c0.2-0.3,0.3-0.7,0.6-1c0.3-0.3,0.6-0.5,1-0.7c-0.2-0.1-0.3-0.2-0.5-0.3c-0.2,0-0.4,0-0.6,0c-0.2,0-0.4,0.1-0.6,0.2   c-0.2,0.1-0.3,0.2-0.5,0.3c-0.1,0.1-0.2,0.3-0.2,0.4c-0.1,0.2-0.1,0.3-0.2,0.4c0,0.2-0.1,0.3-0.2,0.4c0,0.1-0.2,0.2-0.3,0.3   c0.1-0.3,0.1-0.6,0-0.8c-0.2-0.2-0.4-0.2-0.7-0.2c0,0.3,0,0.5-0.2,0.7c-0.2,0.2-0.3,0.3-0.5,0.4c-0.2,0.1-0.4,0.1-0.6,0.1   c-0.3,0-0.4,0-0.6,0c-0.2,0-0.4-0.1-0.6-0.2c-0.2-0.1-0.4-0.3-0.7-0.4c-0.2-0.1-0.5-0.2-0.7-0.3c-0.3,0-0.5,0-0.7,0.1   c0.8,0.9,1.7,1.4,2.5,1.6c0.8,0.2,1.8,0,2.8-0.4c-0.5,0.3-1,0.5-1.4,0.6c-0.5,0.1-0.9,0.1-1.3,0c-0.5-0.1-0.9-0.3-1.3-0.5   c-0.5-0.3-0.9-0.5-1.4-0.8c0.2,0.1,0.3,0.3,0.5,0.4c0.2,0.2,0.4,0.3,0.6,0.5c0.2,0.1,0.4,0.3,0.5,0.5c0.2,0.2,0.3,0.3,0.3,0.3   c-0.1-0.1-0.3-0.2-0.5-0.3c-0.2-0.1-0.4-0.3-0.5-0.4c-0.2-0.2-0.4-0.3-0.6-0.5c-0.2-0.1-0.4-0.2-0.5-0.3c0.5,0.3,0.8,0.8,1.2,1.2   c0.3,0.5,0.5,0.9,0.7,1.4c0.2,0.5,0.3,0.9,0.3,1.4c0,0.5,0,0.9-0.1,1.3c0-0.3,0-0.7,0-1.1c0-0.4-0.1-0.8-0.3-1.3   c-0.1-0.4-0.3-0.8-0.5-1.2c-0.2-0.4-0.5-0.7-0.8-0.9c0.2,0.4,0.4,0.7,0.5,1.1c0.2,0.3,0.2,0.7,0.2,0.9c-0.1-0.5-0.3-0.9-0.6-1.4   c-0.3-0.5-0.6-0.8-1.1-1c0.1,0.1,0.2,0.3,0.3,0.5c0,0.2,0.1,0.3,0,0.5c0-0.2-0.2-0.4-0.4-0.6c-0.2-0.2-0.4-0.3-0.7-0.3   c0.3,0.3,0.4,0.6,0.4,0.9c0,0.3-0.1,0.6-0.3,0.9c0.1,0.1,0.3,0.2,0.4,0.2c0.1,0,0.3,0,0.4-0.1c0.1,0,0.2-0.1,0.3-0.3   c0.1-0.1,0.2-0.2,0.3-0.3c0.2,0.2,0.3,0.5,0.4,0.7c0,0.3,0,0.5-0.1,0.7c-0.1,0.2-0.2,0.4-0.3,0.6c-0.2,0.1-0.3,0.3-0.5,0.3   c0.2,0.2,0.4,0.3,0.7,0.4c0.3,0,0.5-0.1,0.7-0.5c0.2,0.3,0.3,0.6,0.1,0.9c-0.1,0.3-0.3,0.6-0.6,0.8c0.2,0.1,0.4,0.2,0.7,0   c0.2-0.1,0.5-0.3,0.6-0.5c0.1,0,0.1,0.1,0.1,0.2s-0.1,0.2-0.2,0.3c-0.1,0.1-0.2,0.3-0.3,0.4c-0.1,0.1-0.1,0.3-0.1,0.5   c0,0.3,0,0.6,0.1,0.9C115.6,31.9,115.8,32.1,116,32.3L116,32.3z M123.2,16.2c0-0.2-0.1-0.3-0.3-0.5c-0.2-0.1-0.3-0.2-0.5-0.3   c-0.2-0.1-0.4-0.1-0.7-0.1c-0.2,0-0.4,0.1-0.6,0.3c0-0.1,0-0.3,0.1-0.4c0-0.1,0.1-0.3,0.1-0.4c0.1-0.1,0.1-0.3,0.2-0.4   c0-0.1,0.1-0.3,0.1-0.5c0-0.2,0-0.3,0-0.5c0-0.2-0.1-0.3-0.1-0.5c0-0.1-0.1-0.3-0.1-0.5c0-0.1,0-0.3,0.1-0.5   c-0.3,0-0.6,0.1-0.8,0.3c-0.2,0.2-0.3,0.4-0.3,0.6c0,0.2-0.1,0.4-0.1,0.6c0,0.2,0,0.3,0,0.4c-0.1-0.1-0.2-0.2-0.2-0.4   c0-0.1,0-0.3,0-0.4c0-0.2,0-0.3,0.1-0.5c0-0.1,0-0.3-0.1-0.4c0-0.1-0.1-0.2-0.2-0.3c-0.1-0.1-0.2-0.3-0.3-0.4   c-0.1-0.2-0.1-0.3-0.1-0.5c0-0.1,0-0.3,0.1-0.4c-0.3,0-0.6,0-0.8,0.3c-0.1,0.3-0.2,0.5,0,0.8c-0.3,0-0.5-0.1-0.6-0.3   c-0.2-0.2-0.2-0.4-0.2-0.7c0-0.3,0-0.5,0.2-0.8c0.1-0.3,0.3-0.5,0.6-0.7c-0.2-0.1-0.5-0.1-0.8,0c-0.3,0.1-0.6,0.2-0.9,0.4   c-0.3,0.2-0.5,0.5-0.7,0.8c-0.2,0.3-0.3,0.7-0.3,1.1c0,0.2,0.1,0.4,0.2,0.6c0.1,0.2,0.3,0.3,0.4,0.5c0.1,0.2,0.3,0.3,0.4,0.4   c0.1,0.1,0.2,0.3,0.3,0.5c-0.2-0.1-0.5-0.1-0.7-0.1s-0.5,0-0.7,0.2c-0.2,0.1-0.4,0.3-0.5,0.5c-0.1,0.2-0.1,0.5-0.1,0.8   c1-0.4,1.7-0.2,2.1,0.5c0.2,0.3,0.3,0.6,0.3,1c0,0.4-0.1,0.7-0.3,1c-0.6,1.4-1.3,2.6-2.3,3.4c-0.9,0.9-1.9,1.6-2.9,1.9   c-1,0.4-2,0.6-2.9,0.5c-0.9-0.1-1.7-0.4-2.3-0.9c-0.2,0-0.5,0-0.8,0c-0.3,0-0.5,0.1-0.7,0.2c0.7,0.7,1.5,1.1,2.3,1.4   c0.8,0.3,1.6,0.3,2.4,0.3c0.8,0,1.6-0.3,2.4-0.6c0.8-0.3,1.5-0.8,2.2-1.4c0.7-0.5,1.3-1.2,1.8-2c0.5-0.8,1-1.6,1.3-2.5   c0.3-1,0.4-1.7,0.2-2.3c-0.2-0.5-0.7-1.1-1.6-1.5c0.7,0.2,1.2,0.5,1.5,0.9c0.3,0.4,0.5,0.8,0.5,1.3c0,0.5,0,1-0.2,1.4   c-0.2,0.5-0.3,0.9-0.5,1.3c0.5-0.6,0.8-1.3,1.1-1.9c0.3-0.7,0.3-1.3,0.1-1.8c-0.1-0.4-0.3-0.8-0.6-1.2c-0.3-0.5-0.6-0.9-0.8-1.3   c-0.3-0.5-0.4-0.9-0.5-1.3c-0.1-0.4,0-0.7,0.2-0.9c-0.1,0.3,0,0.7,0.1,1c0.1,0.4,0.3,0.8,0.6,1.2c0.3,0.4,0.5,0.8,0.8,1.2   c0.3,0.4,0.4,0.8,0.5,1.2c0.1,0.3,0.1,0.6,0.1,1.1c0,0.4-0.1,0.8-0.3,1.2c-0.2,0.4-0.4,0.8-0.6,1.2c-0.3,0.4-0.6,0.7-1,1   c0.8-0.5,1.3-1,1.6-1.6c0.3-0.6,0.5-1.3,0.6-1.9c0.1-0.6,0-1.3-0.1-1.8c-0.1-0.5-0.3-1.1-0.5-1.5c0,0.1,0.2,0.3,0.3,0.6   c0.2,0.3,0.3,0.6,0.4,1c0.1,0.4,0.2,0.8,0.2,1.3c0,0.5,0,1-0.2,1.5c-0.2,0.5-0.5,1.1-1,1.6c-0.5,0.6-1.1,1.1-1.9,1.7   c0.5-0.1,0.9-0.3,1.3-0.5c0.4-0.3,0.8-0.6,1.1-1c0.3-0.3,0.7-0.7,1-1.1c0.3-0.4,0.6-0.7,0.9-1c0.3-0.3,0.5-0.5,0.8-0.7   C122.7,16.1,123,16.1,123.2,16.2L123.2,16.2z M112.3,22.6c0.4-0.7,0.5-1.4,0.4-2.3c-0.1-0.8-0.4-1.7-0.8-2.6   c-0.4-0.8-0.8-1.7-1.3-2.5c-0.5-0.8-1-1.5-1.4-2c0.2,0.5,0.3,1.1,0.5,1.7c0.3,0.6,0.5,1.2,0.7,1.7c-0.5-0.8-1-1.7-1.2-2.6   c-0.3-0.9-0.4-1.8-0.5-2.8c0-0.6,0.1-1.3,0.3-1.9c0.3-0.7,0.6-1.2,1.1-1.7c0.2-0.2,0.4-0.4,0.7-0.6c0.2-0.2,0.5-0.3,0.7-0.5   c0.3-0.1,0.5-0.2,0.8-0.2c0.3,0,0.5,0.1,0.8,0.2c0.2-0.2,0.3-0.5,0.2-0.8c-0.1-0.3-0.4-0.5-0.9-0.5c0.2-0.3,0.5-0.5,0.9-0.6   c0.4-0.2,0.8-0.4,1.1-0.6c0.3-0.2,0.6-0.5,0.8-0.9c0.2-0.3,0.3-0.8,0.1-1.5c0-0.2-0.1-0.3-0.3-0.5c-0.1-0.1-0.3-0.2-0.4-0.3   c-0.1-0.1-0.3-0.1-0.5-0.2c-0.2,0-0.3,0-0.5,0.1c0.1,0.4,0.1,0.8,0,1.2c-0.1,0.4-0.4,0.8-0.8,1.1c-0.4,0.4-0.8,0.8-1.3,1.2   c-0.5,0.5-1,0.9-1.4,1.4c-0.5,0.5-0.8,1-1.2,1.5c-0.3,0.5-0.6,0.9-0.7,1.3c0.3-0.5,0.7-1,1.1-1.4c0.4-0.5,0.8-0.8,1.3-1.2   c0.5-0.4,0.9-0.8,1.3-1.1c0.5-0.3,0.9-0.7,1.3-1c0.3-0.3,0.6-0.7,0.8-1.1c0.2-0.4,0.3-0.8,0.3-1.2c0.1,0.4,0.2,0.8,0,1.1   c-0.1,0.4-0.3,0.8-0.5,1c-0.3,0.3-0.6,0.5-0.9,0.8c-0.3,0.3-0.7,0.5-1,0.8c-0.3,0.3-0.7,0.5-1,0.7c-0.3,0.3-0.6,0.5-0.9,0.8   c-0.6,0.7-1.1,1.4-1.4,2.2c-0.3,0.8-0.5,1.6-0.5,2.4c0,1.1,0.2,2.1,0.6,3c0.5,0.9,1,1.8,1.6,2.6c-0.2-0.2-0.4-0.3-0.6-0.3   c-0.2,0-0.4,0-0.6,0.2c-0.1,0.1-0.3,0.3-0.3,0.5c-0.1,0.2,0,0.4,0.1,0.7c0.3-0.1,0.5-0.1,0.8-0.1c0.3,0,0.5,0.1,0.7,0.3   c0.2,0.2,0.4,0.3,0.5,0.5c0.1,0.2,0.2,0.4,0.3,0.6c-0.3-0.1-0.6,0-0.9,0c-0.3,0.1-0.5,0.3-0.7,0.5c-0.2,0.2-0.3,0.5-0.2,0.8   c0,0.3,0.2,0.7,0.5,1.1c0-0.3,0.2-0.5,0.4-0.6c0.2-0.1,0.4-0.2,0.6-0.3c0.3,0,0.5,0,0.7,0.1c0.2,0.1,0.3,0.3,0.4,0.5   c0.1,0.2,0.2,0.4,0.2,0.6c0,0.2,0.1,0.4,0,0.6c0.1-0.2,0.2-0.5,0.3-0.7c0-0.3,0-0.5,0-0.8c-0.1-0.3-0.2-0.5-0.4-0.7   c-0.2-0.2-0.5-0.3-0.8-0.3c-0.3,0-0.6,0-0.9,0.2c-0.2,0.2-0.4,0.4-0.6,0.8c0-0.5,0.2-0.8,0.5-0.9c0.3-0.2,0.5-0.3,0.8-0.3   c0.3,0,0.6,0,0.9,0.2c0.2,0.1,0.4,0.3,0.6,0.4c-0.1-0.6-0.3-1.3-0.8-1.9c-0.3-0.4-0.7-0.7-1.2-0.8c-0.5-0.1-0.9-0.2-1.2-0.1   c0.5-0.2,0.9-0.2,1.3-0.1c0.4,0.1,0.8,0.3,1.1,0.6c0.2,0.2,0.4,0.5,0.6,0.8c0.2,0.4,0.3,0.8,0.4,1.2c0.1,0.4,0.1,0.8,0.1,1.3   C112.5,21.9,112.5,22.3,112.3,22.6L112.3,22.6z M113.9,21.8c0.1-0.2,0.2-0.4,0.3-0.6c0-0.3,0.1-0.5,0.2-0.7   c0.1-0.2,0.2-0.4,0.3-0.6c0.1-0.2,0.3-0.4,0.5-0.5c-0.2-0.5-0.5-0.7-0.7-0.6c-0.3,0.1-0.5,0.3-0.8,0.7c0-0.1,0-0.2,0.1-0.3   c0.1-0.1,0.1-0.2,0.2-0.3c0-0.1,0.1-0.3,0.2-0.4c0-0.2,0-0.3,0-0.5c0-0.2,0-0.3,0-0.4c0-0.1-0.1-0.2-0.1-0.3c0-0.1,0-0.3,0-0.4   c0-0.1,0-0.3,0.2-0.5c-0.3-0.1-0.5-0.2-0.7-0.1c-0.1,0.1-0.3,0.2-0.4,0.4c-0.1,0.2-0.1,0.4-0.1,0.7c0,0.3,0,0.5,0.1,0.6   c-0.2-0.1-0.3-0.3-0.3-0.5c-0.1-0.3-0.2-0.5-0.2-0.8c0-0.3,0-0.6,0-0.9c0-0.3,0.1-0.5,0.2-0.7c-0.2,0-0.4,0-0.5,0   c-0.2,0-0.3,0.2-0.4,0.3c-0.1,0.2-0.1,0.3-0.2,0.5c0,0.2,0,0.4,0.1,0.6c-0.3-0.3-0.5-0.7-0.6-1.1c-0.1-0.4-0.3-0.9-0.4-1.3   c-0.2-0.5-0.4-0.9-0.7-1.4c-0.3-0.5-0.7-1-1.3-1.4c0,0.3,0,0.5,0,0.8c0,0.3,0.1,0.5,0.2,0.8c0.5,0.6,1,1.3,1.5,2   c0.5,0.7,0.9,1.4,1.2,2.2c0.3,0.8,0.6,1.5,0.8,2.2c0.2,0.8,0.3,1.5,0.2,2.2c0.2-0.3,0.3-0.5,0.4-0.8c0-0.3,0-0.6,0-0.9   c0-0.3,0-0.6,0-0.9c0-0.3,0-0.5,0.1-0.6c0,0.3,0,0.6,0,1c0,0.4,0.1,0.7,0.1,1.1c0,0.4,0,0.7-0.1,1.1c-0.1,0.4-0.3,0.8-0.6,1.2   c0.2-0.1,0.4-0.3,0.7-0.4C113.8,22,113.9,21.9,113.9,21.8L113.9,21.8z M107.7,12l0-0.5c-0.2,0-0.4-0.1-0.6-0.1   c-0.3,0-0.5,0-0.8,0.1c-0.3,0-0.6,0.1-0.9,0.2c-0.3,0.1-0.6,0.2-0.8,0.3c0.4-0.3,0.8-0.6,1.4-0.7c0.5-0.1,1.1-0.2,1.9-0.2l0-0.4   c-0.3-0.1-0.6-0.2-1.1-0.2c-0.4,0-0.8,0-1.1,0.2c-0.3,0.1-0.5,0.3-0.8,0.4c-0.2,0.2-0.5,0.3-0.7,0.5c-0.3,0.2-0.5,0.3-0.7,0.5   c-0.3,0.1-0.5,0.3-0.8,0.3c-0.2,0.1-0.4,0.1-0.5,0.1c-0.2,0-0.3,0-0.5-0.2c-0.1,0.2-0.1,0.4,0,0.6c0.1,0.2,0.2,0.3,0.3,0.5   c0.2,0.1,0.4,0.2,0.6,0.3c0.2,0,0.4,0.1,0.6,0c0.4,0,0.6-0.2,0.8-0.4c0.2-0.2,0.4-0.4,0.7-0.6c0,0.3,0,0.5,0.1,0.7   c0.2,0.2,0.4,0.3,0.7,0.3c-0.1-0.4-0.1-0.7,0-1c0.2-0.3,0.4-0.4,0.6-0.5c0.3-0.1,0.5-0.2,0.9-0.3C107.2,12,107.5,12,107.7,12   L107.7,12z"
   id="path6"
   style="fill:#000000;fill-opacity:1" />
	<path
   class="st1"
   d="M90.7,15.7L0.7,17v0.8l88.9,1.4C89.1,18.2,89.9,16.8,90.7,15.7L90.7,15.7z"
   id="path8"
   style="fill:#000000;fill-opacity:1" />
	<path
   class="st1"
   d="M128.2,15.7l90,1.3v0.8l-88.9,1.4C129.7,18.2,129,16.8,128.2,15.7L128.2,15.7z"
   id="path10"
   style="fill:#000000;fill-opacity:1" />
</g>
</svg>
